PathFileType	4	(X/Y/Z)	 control3min.trc
DataRate	CameraRate	NumFrames	NumMarkers	Units	OrigDataRate	OrigDataStartFrame	OrigNumFrames
200	200	10	39	m	200	501	1000
Frame#	Time	C7			LSH			RSH			MAN			RASI			LASI			HIPR			HIPL			RPSI			LPSI			COX			RTHI1			RTHI2			RTHI3			RTHI4			RLKN			RMKN			RSHA1			RSHA2			RSHA3			RSHA4			RHEEL			RMET5			RMET1			RTOE			LTHI1			LTHI2			LTHI3			LTHI4			LLKN			LMKN			LSHA1			LSHA2			LSHA3			LSHA4			LHEEL			LMET5			LMET1			LTOE			
		X1	Y1	Z1	X2	Y2	Z2	X3	Y3	Z3	X4	Y4	Z4	X5	Y5	Z5	X6	Y6	Z6	X7	Y7	Z7	X8	Y8	Z8	X9	Y9	Z9	X10	Y10	Z10	X11	Y11	Z11	X12	Y12	Z12	X13	Y13	Z13	X14	Y14	Z14	X15	Y15	Z15	X16	Y16	Z16	X17	Y17	Z17	X18	Y18	Z18	X19	Y19	Z19	X20	Y20	Z20	X21	Y21	Z21	X22	Y22	Z22	X23	Y23	Z23	X24	Y24	Z24	X25	Y25	Z25	X26	Y26	Z26	X27	Y27	Z27	X28	Y28	Z28	X29	Y29	Z29	X30	Y30	Z30	X31	Y31	Z31	X32	Y32	Z32	X33	Y33	Z33	X34	Y34	Z34	X35	Y35	Z35	X36	Y36	Z36	X37	Y37	Z37	X38	Y38	Z38	X39	Y39	Z39	
501	2.5050	-0.302005	1.423168	-0.520676	-0.251278	1.400673	-0.709184	-0.269619	1.406094	-0.336669	-0.148310	1.369986	-0.523196	-0.185523	0.901308	-0.410904	-0.186649	0.906180	-0.646409	-0.263848	0.972232	-0.356553	-0.255612	0.980175	-0.689663	-0.363618	0.962904	-0.488200	-0.361879	0.967096	-0.565129	-0.363065	0.962871	-0.525662	-0.258878	0.726508	-0.332250	-0.236083	0.672273	-0.325576	-0.175581	0.696360	-0.323418	-0.192523	0.755023	-0.331065	-0.178107	0.412609	-0.351599	-0.148993	0.408515	-0.472886	-0.273748	0.282721	-0.345600	-0.302751	0.251690	-0.356820	-0.252528	0.218529	-0.367139	-0.228339	0.250274	-0.359403	-0.421074	0.075512	-0.448325	-0.268597	0.035509	-0.358392	-0.213630	0.047784	-0.427794	-0.184052	0.037137	-0.420979	-0.270240	0.700856	-0.716541	-0.236713	0.649396	-0.724460	-0.182091	0.680931	-0.738931	-0.207556	0.735729	-0.733280	-0.163117	0.432037	-0.713436	-0.140434	0.421586	-0.591449	-0.301499	0.252354	-0.705588	-0.323994	0.220346	-0.695127	-0.269930	0.188458	-0.699732	-0.253405	0.227674	-0.710252	-0.417861	0.064067	-0.621343	-0.259623	0.037353	-0.713858	-0.207661	0.050638	-0.643978	-0.176567	0.037117	-0.653105	
502	2.5100	-0.302165	1.422600	-0.520762	-0.251269	1.400116	-0.709310	-0.269570	1.405616	-0.336807	-0.148425	1.369378	-0.523302	-0.185275	0.900741	-0.411050	-0.186230	0.905755	-0.646508	-0.263894	0.972175	-0.356390	-0.256022	0.979783	-0.689751	-0.363408	0.962343	-0.488123	-0.361696	0.966413	-0.564992	-0.362816	0.962237	-0.525604	-0.258550	0.726056	-0.332254	-0.235745	0.671814	-0.325639	-0.175227	0.695918	-0.323621	-0.192186	0.754568	-0.331242	-0.177093	0.412240	-0.351585	-0.148847	0.408277	-0.472977	-0.272836	0.282436	-0.345345	-0.301869	0.251437	-0.356329	-0.251837	0.218237	-0.367153	-0.227491	0.249921	-0.359535	-0.421060	0.075613	-0.448047	-0.268560	0.035488	-0.358333	-0.213647	0.047780	-0.427792	-0.184069	0.037125	-0.420986	-0.269550	0.700067	-0.716711	-0.235860	0.648722	-0.724612	-0.181283	0.680439	-0.738858	-0.206919	0.735145	-0.733199	-0.162007	0.431487	-0.713521	-0.139206	0.420694	-0.591727	-0.300950	0.252016	-0.705708	-0.323552	0.220036	-0.695272	-0.269580	0.188027	-0.699654	-0.252913	0.227243	-0.710220	-0.417844	0.064098	-0.621370	-0.259612	0.037344	-0.713882	-0.207646	0.050636	-0.643987	-0.176538	0.037106	-0.653127	
503	2.5150	-0.302349	1.422586	-0.520840	-0.251295	1.400100	-0.709420	-0.269512	1.405654	-0.336902	-0.148563	1.369312	-0.523409	-0.184849	0.900725	-0.411165	-0.185653	0.905784	-0.646522	-0.263672	0.972622	-0.356271	-0.255988	0.979937	-0.689915	-0.363060	0.962228	-0.488128	-0.361357	0.966197	-0.564951	-0.362420	0.962079	-0.525631	-0.258174	0.726065	-0.332235	-0.235407	0.671834	-0.325666	-0.174855	0.695876	-0.323796	-0.191778	0.754526	-0.331403	-0.176242	0.412145	-0.351662	-0.149100	0.408442	-0.473088	-0.272223	0.282378	-0.345144	-0.301256	0.251517	-0.356018	-0.251364	0.218204	-0.367152	-0.226929	0.249824	-0.359612	-0.421003	0.075782	-0.447855	-0.268524	0.035462	-0.358303	-0.213640	0.047778	-0.427785	-0.184068	0.037113	-0.420987	-0.268910	0.699814	-0.716896	-0.235173	0.648502	-0.724751	-0.180568	0.680264	-0.738782	-0.206246	0.734941	-0.733131	-0.161678	0.431092	-0.713521	-0.138704	0.420012	-0.591916	-0.300762	0.251696	-0.705752	-0.323455	0.219686	-0.695340	-0.269464	0.187654	-0.699499	-0.252742	0.226919	-0.710119	-0.417867	0.064090	-0.621396	-0.259629	0.037337	-0.713899	-0.207674	0.050629	-0.643986	-0.176551	0.037098	-0.653140	
504	2.5200	-0.302551	1.423080	-0.520912	-0.251363	1.400626	-0.709506	-0.269442	1.406203	-0.336975	-0.148725	1.369792	-0.523516	-0.184275	0.901271	-0.411229	-0.184936	0.906264	-0.646458	-0.263225	0.973484	-0.356214	-0.255513	0.980573	-0.690133	-0.362572	0.962567	-0.488236	-0.360847	0.966472	-0.565040	-0.361880	0.962398	-0.525758	-0.257749	0.726540	-0.332200	-0.235069	0.672328	-0.325661	-0.174467	0.696239	-0.323934	-0.191305	0.754901	-0.331536	-0.175715	0.412346	-0.351789	-0.149668	0.408960	-0.473190	-0.272006	0.282583	-0.345043	-0.300998	0.251705	-0.355802	-0.251182	0.218430	-0.367130	-0.226733	0.250010	-0.359634	-0.420917	0.076004	-0.447754	-0.268496	0.035433	-0.358300	-0.213615	0.047778	-0.427771	-0.184055	0.037099	-0.420979	-0.268335	0.700110	-0.717056	-0.234675	0.648746	-0.724845	-0.179978	0.680421	-0.738704	-0.205570	0.735127	-0.733081	-0.162115	0.430905	-0.713437	-0.138877	0.419610	-0.591983	-0.300892	0.251456	-0.705717	-0.323610	0.219328	-0.695306	-0.269521	0.187361	-0.699239	-0.252863	0.226758	-0.709974	-0.417905	0.064062	-0.621408	-0.259658	0.037332	-0.713904	-0.207719	0.050619	-0.643977	-0.176585	0.037093	-0.653143	
505	2.5250	-0.302782	1.424070	-0.520970	-0.251481	1.401686	-0.709563	-0.269381	1.407254	-0.337039	-0.148917	1.370811	-0.523622	-0.183575	0.902390	-0.411220	-0.184098	0.907205	-0.646333	-0.262610	0.974703	-0.356230	-0.254634	0.981634	-0.690374	-0.361949	0.963360	-0.488451	-0.360166	0.967248	-0.565256	-0.361201	0.963193	-0.525981	-0.257284	0.727478	-0.332148	-0.234740	0.673274	-0.325625	-0.174076	0.696997	-0.324034	-0.190780	0.755687	-0.331637	-0.175660	0.412876	-0.351915	-0.150475	0.409766	-0.473249	-0.272246	0.283068	-0.345017	-0.301200	0.252141	-0.355759	-0.251348	0.218930	-0.367051	-0.226919	0.250502	-0.359578	-0.420818	0.076271	-0.447714	-0.268477	0.035403	-0.358317	-0.213577	0.047779	-0.427750	-0.184038	0.037089	-0.420963	-0.267857	0.700934	-0.717150	-0.234375	0.649446	-0.724877	-0.179535	0.680920	-0.738616	-0.204929	0.735707	-0.733030	-0.163236	0.430999	-0.713278	-0.139650	0.419570	-0.591925	-0.301294	0.251361	-0.705608	-0.323977	0.219079	-0.695189	-0.269774	0.187344	-0.698992	-0.253212	0.226805	-0.709784	-0.417937	0.064038	-0.621397	-0.259689	0.037328	-0.713894	-0.207763	0.050607	-0.643961	-0.176624	0.037089	-0.653138	
506	2.5300	-0.303046	1.425532	-0.521031	-0.251650	1.403262	-0.709582	-0.269347	1.408808	-0.337091	-0.149133	1.372358	-0.523723	-0.182756	0.904080	-0.411126	-0.183146	0.908616	-0.646169	-0.261866	0.976258	-0.356313	-0.253426	0.983090	-0.690616	-0.361196	0.964606	-0.488761	-0.359311	0.968520	-0.565584	-0.360404	0.964449	-0.526284	-0.256820	0.728845	-0.332093	-0.234442	0.674652	-0.325580	-0.173705	0.698143	-0.324093	-0.190222	0.756868	-0.331706	-0.176172	0.413741	-0.352001	-0.151464	0.410799	-0.473235	-0.272941	0.283830	-0.345056	-0.301851	0.252870	-0.355868	-0.251882	0.219700	-0.366897	-0.227492	0.251315	-0.359446	-0.420721	0.076600	-0.447708	-0.268467	0.035369	-0.358346	-0.213536	0.047781	-0.427721	-0.184022	0.037080	-0.420942	-0.267491	0.702253	-0.717159	-0.234276	0.650582	-0.724833	-0.179253	0.681759	-0.738508	-0.204366	0.736675	-0.732965	-0.164907	0.431439	-0.713051	-0.140949	0.419933	-0.591742	-0.301921	0.251481	-0.705444	-0.324516	0.219044	-0.695010	-0.270189	0.187549	-0.698747	-0.253754	0.227117	-0.709587	-0.417950	0.064045	-0.621360	-0.259710	0.037325	-0.713872	-0.207794	0.050596	-0.643943	-0.176658	0.037084	-0.653126	
507	2.5350	-0.303341	1.427446	-0.521082	-0.251872	1.405335	-0.709563	-0.269323	1.410839	-0.337131	-0.149372	1.374415	-0.523818	-0.181832	0.906320	-0.410945	-0.182094	0.910501	-0.645983	-0.261028	0.978145	-0.356458	-0.251963	0.984937	-0.690843	-0.360323	0.966297	-0.489130	-0.358301	0.970272	-0.565982	-0.359488	0.966147	-0.526638	-0.256371	0.730665	-0.332054	-0.234204	0.676424	-0.325527	-0.173381	0.699649	-0.324126	-0.189655	0.758422	-0.331754	-0.177263	0.414950	-0.352036	-0.152615	0.412007	-0.473133	-0.274043	0.284861	-0.345136	-0.302879	0.253833	-0.356044	-0.252735	0.220720	-0.366680	-0.228411	0.252443	-0.359245	-0.420632	0.077008	-0.447697	-0.268464	0.035329	-0.358380	-0.213496	0.047782	-0.427682	-0.184011	0.037072	-0.420918	-0.267259	0.704023	-0.717080	-0.234368	0.652130	-0.724703	-0.179142	0.682943	-0.738378	-0.203900	0.738023	-0.732875	-0.166965	0.432281	-0.712769	-0.142701	0.420743	-0.591459	-0.302746	0.251846	-0.705244	-0.325252	0.219275	-0.694784	-0.270736	0.188070	-0.698541	-0.254478	0.227709	-0.709411	-0.417944	0.064139	-0.621338	-0.259719	0.037320	-0.713840	-0.207807	0.050585	-0.643924	-0.176686	0.037078	-0.653106	
508	2.5400	-0.303661	1.429760	-0.521126	-0.252146	1.407881	-0.709504	-0.269329	1.413297	-0.337221	-0.149628	1.376954	-0.523903	-0.180813	0.909063	-0.410694	-0.180949	0.912837	-0.645787	-0.260105	0.980393	-0.356643	-0.250329	0.987185	-0.691039	-0.359342	0.968410	-0.489523	-0.357157	0.972485	-0.566404	-0.358463	0.968261	-0.527008	-0.255951	0.732908	-0.332017	-0.234055	0.678564	-0.325474	-0.173123	0.701491	-0.324139	-0.189100	0.760333	-0.331793	-0.178921	0.416492	-0.351998	-0.153937	0.413372	-0.472939	-0.275469	0.286132	-0.345244	-0.304213	0.254973	-0.356285	-0.253845	0.221966	-0.366400	-0.229629	0.253857	-0.358996	-0.420549	0.077520	-0.447657	-0.268462	0.035286	-0.358419	-0.213455	0.047781	-0.427634	-0.184008	0.037067	-0.420895	-0.267158	0.706203	-0.716913	-0.234637	0.654059	-0.724500	-0.179195	0.684466	-0.738215	-0.203547	0.739727	-0.732751	-0.169254	0.433548	-0.712441	-0.144847	0.421988	-0.591094	-0.303748	0.252474	-0.705023	-0.326080	0.219794	-0.694570	-0.271427	0.188896	-0.698422	-0.255367	0.228601	-0.709270	-0.417917	0.064336	-0.621341	-0.259714	0.037311	-0.713802	-0.207804	0.050567	-0.643902	-0.176705	0.037074	-0.653079	
509	2.5450	-0.304016	1.432469	-0.521164	-0.252474	1.410867	-0.709404	-0.269421	1.416159	-0.337337	-0.149895	1.379944	-0.523977	-0.179710	0.912238	-0.410397	-0.179718	0.915594	-0.645590	-0.259110	0.983028	-0.356842	-0.248610	0.989858	-0.691195	-0.358264	0.970915	-0.489905	-0.355898	0.975123	-0.566813	-0.357350	0.970774	-0.527355	-0.255607	0.735566	-0.332000	-0.234017	0.681064	-0.325426	-0.172951	0.703639	-0.324140	-0.188584	0.762582	-0.331829	-0.181057	0.418365	-0.351888	-0.155453	0.414916	-0.472677	-0.277121	0.287618	-0.345330	-0.305751	0.256329	-0.356508	-0.255133	0.223426	-0.366071	-0.231071	0.255542	-0.358687	-0.420463	0.078171	-0.447580	-0.268459	0.035240	-0.358466	-0.213412	0.047779	-0.427581	-0.183994	0.037080	-0.420887	-0.267184	0.708757	-0.716673	-0.235065	0.656349	-0.724238	-0.179396	0.686317	-0.738011	-0.203306	0.741771	-0.732582	-0.171648	0.435247	-0.712072	-0.147335	0.423664	-0.590669	-0.304916	0.253353	-0.704801	-0.327041	0.220581	-0.694365	-0.272267	0.190011	-0.698343	-0.256399	0.229771	-0.709156	-0.417872	0.064676	-0.621392	-0.259694	0.037296	-0.713759	-0.207789	0.050545	-0.643878	-0.176721	0.037070	-0.653044	
510	2.5500	-0.304408	1.435534	-0.521201	-0.252850	1.414252	-0.709265	-0.269605	1.419402	-0.337474	-0.150167	1.383349	-0.524033	-0.178521	0.915777	-0.410083	-0.178412	0.918729	-0.645395	-0.258034	0.986065	-0.357033	-0.246877	0.992974	-0.691311	-0.357099	0.973797	-0.490236	-0.354546	0.978152	-0.567175	-0.356162	0.973655	-0.527653	-0.255337	0.738593	-0.331994	-0.234105	0.683921	-0.325387	-0.172877	0.706089	-0.324134	-0.188118	0.765148	-0.331867	-0.183534	0.420543	-0.351726	-0.157195	0.416697	-0.472375	-0.278907	0.289298	-0.345405	-0.307370	0.257820	-0.356680	-0.256522	0.225099	-0.365706	-0.232687	0.257464	-0.358340	-0.420359	0.078991	-0.447454	-0.268450	0.035193	-0.358522	-0.213365	0.047776	-0.427523	-0.183968	0.037107	-0.420898	-0.267313	0.711674	-0.716386	-0.235632	0.658994	-0.723932	-0.179720	0.688489	-0.737770	-0.203161	0.744142	-0.732371	-0.174097	0.437346	-0.711664	-0.150133	0.425740	-0.590192	-0.306233	0.254467	-0.704589	-0.328154	0.221592	-0.694162	-0.273214	0.191341	-0.698329	-0.257575	0.231202	-0.709082	-0.417811	0.065184	-0.621511	-0.259662	0.037277	-0.713713	-0.207766	0.050523	-0.643856	-0.176736	0.037066	-0.653001	
